<svg width="679" height="179" viewBox="0 0 679 179" fill="none" xmlns="http://www.w3.org/2000/svg">
<path d="M477.528 39C477.528 34.5817 481.11 31 485.528 31L625.526 30.4618L625.528 171C625.528 175.418 621.946 179 617.528 179H485.528C481.11 179 477.528 175.418 477.528 171V39Z" fill="#01FABD"/>
<path d="M485.528 155L520.904 55.8989C523.849 48.2303 543.876 48.2303 546.821 55.8989C549.766 63.5674 582.714 155 582.714 155H563.111L535.039 71.9273C534.783 71.1685 534.075 70.6546 533.274 70.646C532.57 70.646 531.946 71.0964 531.724 71.7639L517.798 113.623L518.175 116.341H533.028C535.792 116.341 538.079 117.046 539.889 118.455C541.748 119.865 543.256 121.652 544.412 123.816C545.619 125.93 546.574 128.019 547.277 130.083H512.52L504.075 155H485.528Z" fill="white"/>
<path d="M600.358 155V50H618.528V155H600.358Z" fill="white"/>
<path d="M554.237 0.8018C555.469 0.272735 556.794 0 558.134 0L663.5 7.69719e-06C665.387 7.69719e-06 665.465 2.40035 663.98 3.57333L629.265 31L482.744 31.5L554.237 0.8018Z" fill="#01FABD"/>
<path d="M667.528 105.274V3.99508C667.528 0.627501 663.599 -1.2237 660.989 0.913829L625.526 30.4618L625.028 174L665.936 110.671C666.975 109.062 667.528 107.188 667.528 105.274Z" fill="#01FABD"/>
<path d="M511.528 133L518.028 113L537.028 115.5L544.028 121.5L549.528 131.5L511.528 133Z" fill="#01FABD"/>
<path d="M619.731 30H510.803C509.72 30 509.409 28.5186 510.401 28.084L554.691 8.68086C557.222 7.57231 559.954 7 562.717 7H649.235C650.174 7 650.595 8.17682 649.87 8.77273L627.348 27.2727C625.201 29.0361 622.509 30 619.731 30Z" fill="white"/>
<path d="M0 154L5.696 107.024C6.03733 104.037 6.25067 100.944 6.336 97.744C6.42133 94.544 6.272 91.4507 5.888 88.464L17.792 87.824C18.6027 88.72 19.264 90.0427 19.776 91.792C20.288 93.5413 20.5867 95.4827 20.672 97.616L20.48 100.368L22.016 97.616C24.1067 94.2453 26.7307 91.5787 29.888 89.616C33.0453 87.6533 36.1173 86.672 39.104 86.672C40.3413 86.672 41.5573 86.8 42.752 87.056C43.9467 87.2693 45.2053 87.5893 46.528 88.016L43.072 100.752C41.5787 100.325 40.2773 100.048 39.168 99.92C38.1013 99.7493 37.12 99.664 36.224 99.664C33.408 99.664 30.7627 100.539 28.288 102.288C25.8133 103.995 23.7227 106.469 22.016 109.712C20.3093 112.955 19.1787 116.859 18.624 121.424L14.72 154H0Z" fill="black"/>
<path d="M79.248 155.536C73.872 155.536 69.264 154.555 65.424 152.592C61.584 150.629 58.4907 147.984 56.144 144.656C53.84 141.328 52.2613 137.552 51.408 133.328C50.5547 129.061 50.4053 124.624 50.96 120.016C51.8133 113.019 53.968 107.003 57.424 101.968C60.88 96.9333 65.232 93.072 70.48 90.384C75.728 87.6533 81.5093 86.288 87.824 86.288C92.3893 86.288 96.4 87.248 99.856 89.168C103.312 91.0453 105.957 93.6693 107.792 97.04C109.669 100.368 110.587 104.272 110.544 108.752C110.544 113.232 109.371 118.032 107.024 123.152H70.736C71.9733 120.421 73.552 118.117 75.472 116.24C77.4347 114.363 79.696 113.424 82.256 113.424H95.504C96.2293 110.565 96.272 107.92 95.632 105.488C94.992 103.056 93.776 101.115 91.984 99.664C90.2347 98.2133 88.0373 97.488 85.392 97.488C82.5333 97.488 79.7813 98.2987 77.136 99.92C74.4907 101.499 72.1867 103.931 70.224 107.216C68.304 110.501 67.0453 114.661 66.448 119.696C65.8507 124.645 66.128 128.933 67.28 132.56C68.432 136.187 70.3093 138.981 72.912 140.944C75.5573 142.907 78.736 143.888 82.448 143.888C85.392 143.888 88.2933 143.547 91.152 142.864C94.0533 142.139 97.4453 140.901 101.328 139.152L104.016 149.776C99.3227 151.909 94.928 153.403 90.832 154.256C86.736 155.109 82.8747 155.536 79.248 155.536Z" fill="black"/>
<path d="M140.898 155.28C137.613 155.28 133.986 154.981 130.018 154.384C126.05 153.787 121.485 152.293 116.322 149.904L121.378 139.344C124.877 140.88 128.162 141.989 131.234 142.672C134.349 143.312 137.25 143.632 139.938 143.632C143.351 143.632 145.954 142.885 147.746 141.392C149.581 139.856 150.626 138.064 150.882 136.016C151.138 133.925 150.605 132.197 149.282 130.832C147.959 129.424 146.189 128.165 143.97 127.056C141.751 125.947 139.383 124.816 136.866 123.664C134.391 122.469 132.066 121.083 129.89 119.504C127.714 117.925 126.029 115.984 124.834 113.68C123.682 111.333 123.319 108.432 123.746 104.976C124.045 102.245 125.133 99.472 127.01 96.656C128.887 93.84 131.597 91.472 135.138 89.552C138.679 87.632 143.095 86.672 148.386 86.672C151.117 86.672 153.933 86.9067 156.834 87.376C159.778 87.8027 163.127 88.6773 166.882 90L161.954 100.304C159.01 99.408 156.493 98.7893 154.402 98.448C152.311 98.1067 150.242 97.936 148.194 97.936C145.549 97.936 143.351 98.512 141.602 99.664C139.895 100.773 138.914 102.395 138.658 104.528C138.402 106.491 138.914 108.176 140.194 109.584C141.517 110.992 143.287 112.251 145.506 113.36C147.725 114.469 150.071 115.643 152.546 116.88C155.021 118.117 157.346 119.547 159.522 121.168C161.698 122.789 163.383 124.773 164.578 127.12C165.815 129.467 166.199 132.368 165.73 135.824C165.261 139.621 163.789 142.992 161.314 145.936C158.839 148.837 155.789 151.12 152.162 152.784C148.535 154.448 144.781 155.28 140.898 155.28Z" fill="black"/>
<path d="M205.373 155.536C199.997 155.536 195.389 154.555 191.549 152.592C187.709 150.629 184.616 147.984 182.269 144.656C179.965 141.328 178.386 137.552 177.533 133.328C176.68 129.061 176.53 124.624 177.085 120.016C177.938 113.019 180.093 107.003 183.549 101.968C187.005 96.9333 191.357 93.072 196.605 90.384C201.853 87.6533 207.634 86.288 213.949 86.288C218.514 86.288 222.525 87.248 225.981 89.168C229.437 91.0453 232.082 93.6693 233.917 97.04C235.794 100.368 236.712 104.272 236.669 108.752C236.669 113.232 235.496 118.032 233.149 123.152H196.861C198.098 120.421 199.677 118.117 201.597 116.24C203.56 114.363 205.821 113.424 208.381 113.424H221.629C222.354 110.565 222.397 107.92 221.757 105.488C221.117 103.056 219.901 101.115 218.109 99.664C216.36 98.2133 214.162 97.488 211.517 97.488C208.658 97.488 205.906 98.2987 203.261 99.92C200.616 101.499 198.312 103.931 196.349 107.216C194.429 110.501 193.17 114.661 192.573 119.696C191.976 124.645 192.253 128.933 193.405 132.56C194.557 136.187 196.434 138.981 199.037 140.944C201.682 142.907 204.861 143.888 208.573 143.888C211.517 143.888 214.418 143.547 217.277 142.864C220.178 142.139 223.57 140.901 227.453 139.152L230.141 149.776C225.448 151.909 221.053 153.403 216.957 154.256C212.861 155.109 209 155.536 205.373 155.536Z" fill="black"/>
<path d="M270.607 154.96C266.639 155.301 263.119 154.64 260.047 152.976C256.975 151.269 254.436 148.859 252.431 145.744C250.426 142.629 248.996 139.067 248.143 135.056C247.332 131.003 247.204 126.821 247.759 122.512C248.57 115.643 250.746 109.477 254.287 104.016C257.828 98.5547 262.436 94.2667 268.111 91.152C273.786 87.9947 280.228 86.416 287.439 86.416C289.828 86.416 292.218 86.5227 294.607 86.736C296.996 86.9493 299.578 87.3547 302.351 87.952C305.124 88.5067 308.324 89.296 311.951 90.32L306.447 135.376C306.02 138.789 305.786 142.032 305.743 145.104C305.7 148.133 305.85 151.013 306.191 153.744L294.415 154C293.306 153.317 292.282 151.781 291.343 149.392C290.447 146.96 290.191 144.144 290.575 140.944L295.695 99.216C293.946 98.7893 292.282 98.4907 290.703 98.32C289.167 98.1493 287.759 98.064 286.479 98.064C280.42 98.064 275.428 100.261 271.503 104.656C267.62 109.051 265.21 115.003 264.271 122.512C263.844 126.053 263.844 129.445 264.271 132.688C264.74 135.931 265.807 138.533 267.471 140.496C269.135 142.459 271.631 143.248 274.959 142.864C277.22 142.651 279.098 143.184 280.591 144.464C282.084 145.701 283.514 147.408 284.879 149.584C282.447 151.077 279.972 152.293 277.455 153.232C274.98 154.171 272.698 154.747 270.607 154.96Z" fill="black"/>
<path d="M323.5 154L329.196 107.024C329.537 104.037 329.751 100.944 329.836 97.744C329.921 94.544 329.772 91.4507 329.388 88.464L341.292 87.824C342.103 88.72 342.764 90.0427 343.276 91.792C343.788 93.5413 344.087 95.4827 344.172 97.616L343.98 100.368L345.516 97.616C347.607 94.2453 350.231 91.5787 353.388 89.616C356.545 87.6533 359.617 86.672 362.604 86.672C363.841 86.672 365.057 86.8 366.252 87.056C367.447 87.2693 368.705 87.5893 370.028 88.016L366.572 100.752C365.079 100.325 363.777 100.048 362.668 99.92C361.601 99.7493 360.62 99.664 359.724 99.664C356.908 99.664 354.263 100.539 351.788 102.288C349.313 103.995 347.223 106.469 345.516 109.712C343.809 112.955 342.679 116.859 342.124 121.424L338.22 154H323.5Z" fill="black"/>
<path d="M401.02 155.536C395.175 155.536 389.905 154.299 385.212 151.824C380.519 149.307 376.956 145.488 374.524 140.368C372.092 135.248 371.345 128.741 372.284 120.848C373.223 113.253 375.548 106.896 379.26 101.776C383.015 96.656 387.559 92.7947 392.892 90.192C398.225 87.5893 403.772 86.288 409.532 86.288C411.836 86.288 414.332 86.5227 417.02 86.992C419.708 87.4187 422.289 88.1227 424.764 89.104L419.58 99.6C417.489 99.0453 415.441 98.64 413.436 98.384C411.473 98.0853 409.681 97.936 408.06 97.936C403.367 97.936 399.207 99.92 395.58 103.888C391.996 107.813 389.735 113.467 388.796 120.848C388.199 125.84 388.391 130.043 389.372 133.456C390.396 136.827 392.039 139.408 394.3 141.2C396.604 142.992 399.335 143.888 402.492 143.888C404.327 143.888 406.332 143.632 408.508 143.12C410.684 142.565 413.244 141.712 416.188 140.56L418.876 151.056C415.292 152.635 411.964 153.765 408.892 154.448C405.82 155.173 403.196 155.536 401.02 155.536Z" fill="black"/>
<path d="M428.759 154L440.663 56.976L456.023 57.872L444.247 154H428.759ZM470.103 154L475.927 106.576C476.183 104.144 475.906 102.139 475.095 100.56C474.284 98.9813 472.812 98.192 470.679 98.192C469.783 98.192 469.036 98.2987 468.439 98.512C467.884 98.6827 467.01 98.832 465.815 98.96C463.682 99.2587 461.868 98.768 460.375 97.488C458.882 96.208 457.538 94.5013 456.343 92.368C460.951 89.8933 464.812 88.272 467.927 87.504C471.084 86.6933 473.836 86.288 476.183 86.288C479.255 86.288 482.05 86.992 484.567 88.4C487.127 89.808 489.068 92.0267 490.391 95.056C491.714 98.0853 492.076 102.032 491.479 106.896L485.719 154H470.103Z" fill="black"/>
<path d="M642.416 145.064V119.336H618.544V108.584H642.416V83.112H654.384V108.584H678.448V119.336H654.384V145.064H642.416Z" fill="black"/>
<path d="M625 29.5L624.5 33H629.5L663.5 8L665.5 2.5L665 0.5L664 0H662L625 29.5Z" fill="#01FABD"/>
</svg>
